<?xml version="1.0" encoding="utf-8"?>
<!-- Generator: Adobe Illustrator 19.2.0, SVG Export Plug-In . SVG Version: 6.00 Build 0)  -->
<svg version="1.1"
	 id="svg12862" inkscape:version="0.48.3.1 r9886" sodipodi:docname="New document 5" xmlns:cc="http://creativecommons.org/ns#" xmlns:dc="http://purl.org/dc/elements/1.1/" xmlns:inkscape="http://www.inkscape.org/namespaces/inkscape" xmlns:rdf="http://www.w3.org/1999/02/22-rdf-syntax-ns#" xmlns:sodipodi="http://sodipodi.sourceforge.net/DTD/sodipodi-0.dtd" xmlns:svg="http://www.w3.org/2000/svg"
	 xmlns="http://www.w3.org/2000/svg" xmlns:xlink="http://www.w3.org/1999/xlink" x="0px" y="0px" viewBox="0 0 306.5 64"
	 style="enable-background:new 0 0 306.5 64;" xml:space="preserve">
<style type="text/css">
	.st0{fill:#F7931A;}
	.st1{fill:#FFFFFF;}
</style>
<sodipodi:namedview  bordercolor="#666666" borderopacity="1.0" fit-margin-bottom="0" fit-margin-left="0" fit-margin-right="0" fit-margin-top="0" id="base" inkscape:current-layer="layer1" inkscape:cx="256.82063" inkscape:cy="94.857471" inkscape:document-units="px" inkscape:pageopacity="0.0" inkscape:pageshadow="2" inkscape:window-height="421" inkscape:window-maximized="0" inkscape:window-width="483" inkscape:window-x="36" inkscape:window-y="331" inkscape:zoom="0.35" pagecolor="#ffffff" showgrid="false">
	</sodipodi:namedview>
<g id="layer1" transform="translate(-118.17937,-563.219)" inkscape:groupmode="layer" inkscape:label="Layer 1">
	<g id="g8020" transform="translate(-459.37717,519.9716)">
		<g id="g8022">
			<g id="g8024">
				<path id="path8026" inkscape:connector-curvature="0" class="st0" d="M640.6,83c-4.3,17.1-21.6,27.6-38.8,23.3
					c-17.1-4.3-27.6-21.6-23.3-38.8c4.3-17.1,21.6-27.6,38.8-23.3C634.4,48.5,644.9,65.8,640.6,83L640.6,83z"/>
				<g id="g8028">
					<g id="g8030">
						<path id="path8032" inkscape:connector-curvature="0" class="st1" d="M623.7,70.7c0.6-4.3-2.6-6.5-7-8.1l1.4-5.8l-3.5-0.9
							l-1.4,5.6c-0.9-0.2-1.9-0.4-2.8-0.7l1.4-5.7l-3.5-0.9l-1.4,5.8c-0.8-0.2-1.5-0.3-2.2-0.5l0,0l-4.8-1.2l-0.9,3.8
							c0,0,2.6,0.6,2.5,0.6c1.4,0.4,1.7,1.3,1.6,2l-1.6,6.6c0.1,0,0.2,0.1,0.4,0.1c-0.1,0-0.2-0.1-0.4-0.1l-2.3,9.2
							c-0.2,0.4-0.6,1.1-1.6,0.8c0,0.1-2.6-0.6-2.6-0.6l-1.7,4l4.6,1.1c0.8,0.2,1.7,0.4,2.5,0.6l-1.5,5.8l3.5,0.9l1.4-5.8
							c1,0.3,1.9,0.5,2.8,0.7l-1.4,5.7l3.5,0.9l1.5-5.8c6,1.1,10.5,0.7,12.4-4.7c1.5-4.4-0.1-6.9-3.2-8.5
							C621.5,75.3,623.2,73.8,623.7,70.7L623.7,70.7z M615.6,81.9c-1.1,4.4-8.4,2-10.8,1.4l1.9-7.7
							C609.1,76.2,616.8,77.4,615.6,81.9z M616.7,70.6c-1,4-7.1,2-9.1,1.5l1.7-7C611.4,65.6,617.8,66.5,616.7,70.6z"/>
					</g>
				</g>
			</g>
		</g>
		<g id="g8034">
			<path id="path8036" inkscape:connector-curvature="0" class="st1" d="M671.3,62.6c2.6,0,4.8,0.5,6.7,1.4c1.9,0.9,3.5,2.2,4.7,3.7
				c1.2,1.6,2.2,3.4,2.8,5.5c0.6,2.1,0.9,4.4,0.9,6.8c0,3.7-0.7,7.2-2.1,10.6c-1.4,3.3-3.2,6.2-5.6,8.7c-2.4,2.5-5.2,4.4-8.4,5.8
				c-3.2,1.4-6.7,2.1-10.5,2.1c-0.5,0-1.3,0-2.6,0c-1.2,0-2.6-0.2-4.2-0.4c-1.6-0.2-3.2-0.5-5-1c-1.8-0.4-3.4-1-5-1.8l14-58.9
				l12.6-1.9l-5,20.9c1.1-0.5,2.2-0.9,3.2-1.1C668.9,62.8,670.1,62.6,671.3,62.6L671.3,62.6z M660.8,97.3c1.9,0,3.7-0.5,5.3-1.4
				c1.7-0.9,3.1-2.1,4.3-3.7c1.2-1.5,2.2-3.3,2.9-5.2c0.7-1.9,1.1-4,1.1-6.1c0-2.6-0.4-4.6-1.3-6.1c-0.9-1.5-2.5-2.2-4.8-2.2
				c-0.8,0-1.7,0.1-3,0.4c-1.2,0.3-2.3,0.8-3.3,1.7L656.8,97c0.3,0.1,0.6,0.1,0.8,0.2c0.2,0.1,0.5,0.1,0.8,0.1c0.3,0,0.6,0,1,0
				S660.2,97.3,660.8,97.3L660.8,97.3z"/>
			<path id="path8038" inkscape:connector-curvature="0" class="st1" d="M699.4,106.1h-12l10.1-42.6h12.1L699.4,106.1z M705.2,58.3
				c-1.7,0-3.2-0.5-4.5-1.5c-1.4-1-2-2.5-2-4.6c0-1.1,0.2-2.2,0.7-3.2c0.5-1,1.1-1.9,1.8-2.6c0.8-0.7,1.6-1.3,2.6-1.7
				c1-0.4,2.1-0.6,3.2-0.6c1.7,0,3.2,0.5,4.5,1.5c1.3,1,2,2.5,2,4.6c0,1.1-0.2,2.2-0.7,3.2c-0.5,1-1.1,1.9-1.8,2.6
				c-0.8,0.7-1.6,1.3-2.6,1.7C707.4,58.1,706.4,58.3,705.2,58.3L705.2,58.3z"/>
			<path id="path8040" inkscape:connector-curvature="0" class="st1" d="M720.1,52.9l12.6-1.9l-3.1,12.6H743l-2.4,9.9h-13.4
				l-3.6,14.9c-0.3,1.2-0.5,2.4-0.6,3.5c-0.1,1.1,0.1,2,0.4,2.8c0.3,0.8,0.9,1.4,1.7,1.8c0.8,0.4,2,0.7,3.6,0.7
				c1.3,0,2.6-0.1,3.8-0.4c1.2-0.2,2.4-0.6,3.7-1l0.9,9.2c-1.6,0.6-3.4,1.1-5.3,1.5c-1.9,0.4-4.1,0.6-6.7,0.6
				c-3.7,0-6.6-0.6-8.7-1.7c-2.1-1.1-3.5-2.6-4.4-4.5c-0.9-1.9-1.2-4.1-1.1-6.6c0.1-2.5,0.5-5.1,1.1-7.9L720.1,52.9z"/>
			<path id="path8042" inkscape:connector-curvature="0" class="st1" d="M742.5,89.1c0-3.7,0.6-7.1,1.8-10.4
				c1.2-3.2,2.9-6.1,5.1-8.5c2.2-2.4,4.9-4.3,8.1-5.7c3.2-1.4,6.7-2.1,10.6-2.1c2.4,0,4.6,0.2,6.5,0.7c1.9,0.5,3.7,1.1,5.2,1.8
				l-4.1,9.4c-1.1-0.4-2.2-0.8-3.4-1.2c-1.2-0.4-2.6-0.5-4.2-0.5c-4,0-7.2,1.4-9.5,4.1c-2.3,2.8-3.5,6.5-3.5,11.1
				c0,2.8,0.6,5,1.8,6.7c1.2,1.7,3.4,2.6,6.6,2.6c1.6,0,3.1-0.2,4.5-0.5c1.5-0.3,2.8-0.7,3.9-1.2l0.9,9.6c-1.5,0.6-3.2,1.1-5,1.6
				c-1.8,0.4-4,0.7-6.6,0.7c-3.3,0-6.2-0.5-8.5-1.5c-2.3-1-4.2-2.3-5.7-3.9c-1.5-1.7-2.6-3.6-3.3-5.8
				C742.9,93.9,742.5,91.5,742.5,89.1L742.5,89.1z"/>
			<path id="path8044" inkscape:connector-curvature="0" class="st1" d="M795.8,107.2c-2.9,0-5.3-0.4-7.5-1.3
				c-2.1-0.9-3.8-2.1-5.2-3.6c-1.4-1.6-2.4-3.4-3.1-5.5c-0.7-2.1-1-4.5-1-7.1c0-3.2,0.5-6.5,1.6-9.7c1-3.2,2.6-6.2,4.7-8.7
				c2-2.6,4.6-4.7,7.5-6.4c3-1.6,6.4-2.5,10.2-2.5c2.8,0,5.3,0.4,7.4,1.3c2.1,0.9,3.9,2.1,5.3,3.6c1.4,1.6,2.4,3.4,3.1,5.5
				c0.7,2.1,1.1,4.5,1.1,7.1c0,3.2-0.5,6.5-1.5,9.7c-1,3.2-2.5,6.1-4.5,8.7c-2,2.6-4.5,4.7-7.5,6.4
				C803.2,106.4,799.7,107.2,795.8,107.2L795.8,107.2z M801.7,72.6c-1.8,0-3.3,0.5-4.7,1.5c-1.3,1-2.5,2.3-3.4,3.9
				c-0.9,1.6-1.6,3.3-2.1,5.1c-0.5,1.9-0.7,3.6-0.7,5.3c0,2.7,0.4,4.8,1.3,6.3c0.9,1.5,2.4,2.3,4.7,2.3c1.8,0,3.3-0.5,4.7-1.5
				c1.3-1,2.5-2.3,3.4-3.9c0.9-1.6,1.6-3.3,2.1-5.1c0.5-1.9,0.7-3.6,0.7-5.3c0-2.7-0.4-4.8-1.3-6.3C805.6,73.3,804,72.6,801.7,72.6z
				"/>
			<path id="path8046" inkscape:connector-curvature="0" class="st1" d="M832.8,106.1h-12l10.1-42.6H843L832.8,106.1z M838.6,58.3
				c-1.7,0-3.2-0.5-4.5-1.5c-1.3-1-2-2.5-2-4.6c0-1.1,0.2-2.2,0.7-3.2c0.5-1,1.1-1.9,1.8-2.6c0.8-0.7,1.6-1.3,2.6-1.7
				c1-0.4,2.1-0.6,3.2-0.6c1.7,0,3.2,0.5,4.5,1.5c1.3,1,2,2.5,2,4.6c0,1.1-0.2,2.2-0.7,3.2s-1.1,1.9-1.8,2.6
				c-0.8,0.7-1.6,1.3-2.6,1.7C840.8,58.1,839.8,58.3,838.6,58.3z"/>
			<path id="path8048" inkscape:connector-curvature="0" class="st1" d="M851.6,65.5c0.9-0.3,1.9-0.6,3-0.9c1.1-0.3,2.3-0.7,3.7-1
				c1.4-0.3,2.9-0.5,4.6-0.7c1.7-0.2,3.6-0.3,5.8-0.3c6.3,0,10.7,1.8,13.1,5.5c2.4,3.7,2.8,8.7,1.3,15.1l-5.5,23h-12.1l5.3-22.5
				c0.3-1.4,0.6-2.8,0.8-4.1c0.2-1.3,0.2-2.5,0-3.5c-0.2-1-0.7-1.8-1.5-2.4c-0.8-0.6-2-0.9-3.6-0.9c-1.6,0-3.2,0.2-4.8,0.5l-7.9,33
				h-12.1L851.6,65.5L851.6,65.5z"/>
		</g>
	</g>
</g>
</svg>
